<svg width="534" height="534" viewBox="0 0 534 534" fill="none" xmlns="http://www.w3.org/2000/svg">
<path d="M70.6665 59.7331C70.6665 62.7998 75.4665 76.2665 78.9332 83.1998C81.0665 87.4665 86.3998 96.2665 90.7998 102.666C95.0665 108.933 100.267 118.133 102.4 122.8C105.733 130.666 106 132.666 106 148C105.867 161.733 105.333 165.866 103.067 171.6L100.4 178.4L105.067 179.333C120.133 182.133 133.2 190.666 136.133 199.6C139.333 209.466 135.2 223.6 124.133 239.866L118.533 248H129.733C144.4 248 153.2 250.666 158.533 256.666C160.8 259.333 163.067 262.933 163.467 264.8C165.2 271.466 163.067 284.4 158.8 293.866C156.533 298.933 154.667 303.2 154.667 303.333C154.667 303.466 158.667 303.066 163.733 302.4C188.267 299.2 203.067 306.8 208 324.666L210.133 332.266L219.867 323.466C232.133 312.4 245.867 305.333 254.8 305.333C261.867 305.333 262.8 306.266 258.667 310C257.2 311.333 256 313.733 256 315.466C256 318.266 256.267 318.4 259.467 316.666C263.2 314.8 266 315.2 269.733 318.4C272.933 321.333 272.667 322 266.667 324.666C261.6 326.933 255.733 332.666 250.4 340.266C247.733 344.266 240 346.666 229.733 346.666C218.533 346.666 212.8 344.266 197.733 333.466C172.8 315.6 161.333 312 149.733 318.666C141.733 323.066 139.733 327.466 140.533 338.266C140.933 343.333 141.2 347.466 141.2 347.6C141.333 347.733 144.267 349.866 147.867 352.533C155.867 358.533 158.133 358.8 155.333 353.333C154.267 351.2 153.333 347.6 153.333 345.333C153.333 342.133 152.8 341.333 151.067 341.6C149.333 341.866 148.4 340.666 147.467 336.933C146.4 332.8 146.667 331.333 148.933 328.266C150.4 326.266 153.867 323.866 156.533 322.8C163.733 320.133 169.067 322.266 184.667 334C192 339.6 201.6 345.866 206 348C214.667 352.133 231.2 356 240.133 356H245.733L243.2 358.8C241.867 360.4 238.933 362.533 236.667 363.6C234.533 364.8 227.867 370.4 222 376C209.867 387.733 205.467 390.4 193.333 392.933C182.133 395.333 175.467 399.333 161.867 412C149.867 423.066 143.467 426.933 136 427.466C133.467 427.6 130.933 427.733 130.533 427.866C128.933 428.133 127.6 432.533 127.333 438.666C127.067 442 125.333 448.133 123.333 452.4C119.2 461.2 119.467 466.533 124.267 471.6C129.333 476.933 133.467 475.2 135.333 466.933C136 463.866 140.4 458.4 150.533 448L164.8 433.466L177.467 429.2C184.267 426.933 194.4 423.066 199.867 420.533C205.333 418 210.533 416 211.6 416C212.533 416 218.267 414.4 224.133 412.4C234.8 408.933 234.8 408.933 243.867 411.066C248.933 412.4 257.733 413.333 263.467 413.333C273.733 413.466 281.733 414.8 297.6 419.066C308.533 422 336.4 421.2 340.133 417.866C346.4 412.266 348.4 406.933 347.733 398C346.667 386 341.333 375.466 326.933 357.6C320.267 349.333 314.4 341.333 314 339.866C313.467 338.4 315.2 331.866 317.867 324.4C323.467 309.466 324 299.866 320.533 284.533C319.2 279.333 318.667 274.133 319.067 272.933C319.867 270.666 341.067 265.333 349.2 265.333C352 265.333 356.8 266.133 359.733 267.2C364 268.8 368.8 268.933 384.8 267.866C406.533 266.533 416.933 264.8 420.8 262C424.4 259.466 422.8 258.666 411.867 257.2C406.533 256.533 400.8 255.066 399.067 254C397.2 252.666 393.333 252 389.067 252.133C379.733 252.4 360.267 249.733 353.333 247.333C349.067 245.866 344.4 245.6 334.133 246.266C324.533 246.8 320.133 246.533 319.467 245.6C318.267 243.6 329.333 231.866 337.067 226.8C340.533 224.666 347.2 221.6 352 220C356.8 218.4 361.467 216.533 362.4 215.733C365.2 213.333 364.133 210.533 360 208.933C357.867 208.133 356 207.066 356 206.533C356 204.666 364.667 198.4 373.467 193.866C390.133 185.6 403.2 182.666 430 181.2C468.667 179.2 470.667 178.133 444.667 173.466C435.867 171.866 422.4 169.2 414.8 167.466L400.933 164.4L396.4 166.933C385.2 173.6 373.067 172.533 360.667 163.866C356.533 161.066 352.933 158.666 352.667 158.666C352.4 158.666 350.8 161.066 349.067 164.133C347.2 167.466 343.6 170.933 340.133 173.066C334.533 176.266 333.067 176.533 320.4 176.266C305.333 176 304.4 176.666 308.667 184C311.733 189.466 311.2 192.133 307.333 191.2C303.6 190.266 303.733 190 304 202C304.133 206.8 303.467 210.933 302.4 212.4C300.667 214.666 300.4 214.666 295.333 212.133C292.4 210.8 289.6 209.866 289.067 210.266C287.467 211.2 287.867 214.666 289.467 214.666C290.133 214.666 290.4 215.333 289.867 216.266C288.4 218.533 285.2 213.466 286.533 211.066C287.067 209.866 286.667 207.2 285.467 204.666C283.867 201.2 282.533 200.133 280 200C278 200 275.867 199.333 275.067 198.533C272.8 196.266 269.333 198.133 269.333 201.333C269.333 205.066 272.933 206.133 276 203.333C280.267 199.466 282.133 201.466 281.867 209.466C281.733 215.333 281.2 216.8 279.2 217.2C277.733 217.466 276.133 218.4 275.6 219.466C274.133 222 271.467 221.866 268.933 218.933C265.067 214.8 266 212.933 271.467 213.866C275.733 214.8 276 214.666 274.8 212.266C274.133 210.933 272.533 208.933 271.333 208C268.267 205.466 266.4 200.533 265.467 192.666C264.667 186.133 264.533 186 259.333 185.2C256.533 184.666 253.867 183.6 253.6 182.8C253.333 182 252.267 181.333 251.067 181.333C249.733 181.333 249.467 182.133 250 183.866C250.8 186.533 247.733 190.666 244.8 190.666C243.733 190.666 242.267 191.6 241.333 192.666C239.867 194.4 240.267 195.466 244 199.333C247.467 202.933 248 204 246.267 204C242.667 204 237.6 198.133 236.667 192.8C235.467 186.533 233.733 185.6 231.867 190.266C230.933 192.8 230.933 195.6 232 199.733C233.2 204.8 233.067 206 231.2 208.133C229.067 210.533 229.2 210.933 234.4 216.533C237.333 219.733 240.8 224.266 242 226.666C244.133 230.933 250.8 234.666 255.867 234.666C257.333 234.666 260.533 235.866 262.933 237.333C266 239.2 268.667 239.733 272 239.2C275.6 238.666 277.733 239.2 281.733 241.866C284.533 243.733 286.933 245.333 287.2 245.333C287.467 245.333 287.2 243.2 286.667 240.666C285.467 235.6 283.733 232.666 279.467 229.2C276.8 226.933 277.6 223.6 280.667 224.8C281.6 225.2 283.6 224.933 285.067 224.133C287.2 223.066 287.867 223.333 289.2 226.133C290 228 290.667 231.066 290.667 233.066C290.8 235.066 291.867 238.666 293.067 241.2C295.2 245.466 295.733 245.733 304 246.266C308.8 246.533 320.8 246.933 330.667 247.2C342.933 247.333 350.933 248.133 355.733 249.6C359.6 250.933 366.4 252.266 371.067 252.666C375.6 253.066 381.467 254.133 384.133 254.933C387.467 255.866 389.733 255.866 391.467 254.933C393.333 254 394.667 254.133 396.533 255.333C397.867 256.4 403.2 257.6 408.133 258.133C418.4 259.066 420.667 260.666 415.2 262.8C411.067 264.266 403.067 263.333 396.267 260.533C392.267 258.933 391.6 259.066 389.333 261.333C386.267 264.4 387.067 264.4 373.733 262.533C362.667 261.066 359.733 259.866 355.067 255.6C352.267 253.2 351.6 253.066 346.8 254.666C343.867 255.6 338.4 256.133 334.133 255.733C328.533 255.333 326.667 255.6 326 257.066C325.467 258.533 323.867 258.8 320 258.266L314.8 257.6L315.467 266.533C315.867 271.333 317.467 280.933 318.933 287.733C322.4 303.333 321.733 312.133 316.133 324.266C309.2 339.333 309.467 340.266 328.667 364C342.8 381.6 349.067 397.733 345.2 407.333L343.733 411.333L340.667 402.266C336.933 391.066 332.133 384.933 321.867 378C301.733 364.533 298.267 359.866 296.8 344.4C295.867 333.466 296.133 333.2 304.933 332.533C308.267 332.4 311.2 331.866 311.467 331.6C311.733 331.333 311.333 329.066 310.533 326.666C309.333 323.333 309.333 319.733 310.533 311.466C312.267 300.4 311.733 296 307.6 284.8C306.267 281.066 306 278.266 306.933 275.2C307.733 272.133 307.6 269.733 306.667 268C304.8 264.533 277.467 244 274.8 244C273.2 244 273.2 244.4 274.4 245.6C276.933 248.133 276.267 250.533 273.333 249.733C270.133 248.933 270.133 249.066 272.8 254.533C274 256.933 276.267 259.333 277.867 260C282.267 261.6 288 269.066 288 272.933C288 275.866 287.733 276.133 285.867 274.533C284.8 273.6 282.667 270.533 281.2 267.733C279.733 264.8 276.933 262 274.933 261.066C258.4 254.666 249.067 247.066 244.933 236.933C243.733 234.266 239.733 229.866 234.8 226.133C226 219.333 218.667 210.4 212.533 198.8C208 190.266 203.067 186.266 192.933 182.8C188.8 181.333 184.267 179.466 183.067 178.666C180.933 177.333 180.933 177.2 183.333 178C184.8 178.533 188.133 179.2 190.667 179.466C200.133 180.8 201.467 181.6 210.667 190.266C215.867 195.066 220.4 198.666 220.8 198.266C221.2 197.866 220.533 195.733 219.467 193.466C215.333 185.6 216.933 182.666 228.4 177.333C240.8 171.466 241.333 164.666 230 157.466C226.667 155.333 214 149.866 201.733 145.333C173.333 134.8 150.267 123.333 128.133 108.8C102.133 91.5998 87.3332 78.5331 75.9998 62.6664C73.3332 58.7998 70.6665 57.4664 70.6665 59.7331ZM288.667 385.733L295.2 391.6L283.333 392.4C276.8 392.8 271.333 393.066 271.2 392.933C271.067 392.8 270.533 391.2 270.133 389.333C269.333 386.533 270 385.6 274.267 383.066C277.067 381.466 280 380.133 280.667 380C281.467 380 285.067 382.666 288.667 385.733ZM225.067 392.933C224.8 394.266 222.8 395.866 220.667 396.4C218.4 397.066 215.6 398.133 214.4 398.8C209.467 401.333 209.2 398.666 214 394C218 390 225.733 389.2 225.067 392.933ZM206.667 394.266C206.667 401.866 198.8 412 193.2 412C191.733 412 189.2 413.466 187.6 415.2C183.733 419.6 161.067 429.6 153.333 430.4C148 430.933 142.667 433.733 142.667 435.866C142.667 437.466 150.267 440 152.533 439.2C157.6 437.333 154.133 442.8 145.467 450.4C139.2 456 135.467 460.533 133.867 464.666C131.067 471.333 130.133 471.866 128 467.866C126 464.133 127.2 459.6 131.867 454.4C138.8 446.4 140.133 441.333 135.2 441.333C130.533 441.333 134.667 429.6 139.867 428.533C147.067 427.066 154.8 423.6 162.667 418.533C168.933 414.533 172 413.333 176.667 413.333C185.2 413.333 186.667 412.4 186.667 407.066C186.667 400.933 188.667 397.466 193.733 395.333C198.267 393.333 206.667 392.666 206.667 394.266ZM250 396.133C254.8 397.733 258.667 399.466 258.667 400C258.667 402.4 247.2 402.266 241.867 399.866C238.933 398.4 235.2 397.333 233.6 397.333C230.133 397.333 229.733 395.066 233.067 394.266C237.867 392.933 241.467 393.466 250 396.133ZM323.867 400.133C329.467 401.333 332.667 404.4 331.467 407.333C330.8 409.2 329.6 409.466 325.6 408.8C317.2 407.2 316.267 406.666 314.8 402.4C312.933 396.933 312.8 397.066 316.4 398.133C318 398.666 321.333 399.6 323.867 400.133Z" fill="#0F0612"/>
<path d="M412 235.333C410.8 236.8 409.733 236.933 407.866 235.866C405.733 234.8 405.333 235.066 405.333 237.866C405.333 239.733 404.8 241.6 404 242C401.866 243.333 402.4 244.933 405.333 245.733C406.933 246.133 408 247.6 408 249.2C408 251.866 408.133 252 411.2 250C412.933 248.933 415.333 248.266 416.533 248.8C418.4 249.466 418.666 249.066 418 246.4C417.333 243.866 417.733 242.8 419.6 242C421.733 241.2 421.733 240.933 419.066 239.866C417.2 239.2 416 237.6 416 236C416 232.8 414.266 232.533 412 235.333Z" fill="#0F0612"/>
<path d="M302.267 346.933C303.067 355.333 304.4 358.666 307.067 358.666C307.867 358.666 309.867 360 311.6 361.6C314.533 364.4 314.667 364.4 314.667 361.733C314.667 360.266 313.2 357.733 311.333 356C309.467 354.266 308 351.333 308 349.466C308 345.333 305.333 339.733 303.067 339.066C302 338.666 301.733 340.933 302.267 346.933Z" fill="#0F0612"/>
</svg>
